HIERARCHY
ROOT Hips
{
	OFFSET 0.000000 0.000000 0.000000
	CHANNELS 6 Xposition Yposition Zposition Xrotation Yrotation Zrotation
	JOINT LeftUpLeg_virtual
	{
		OFFSET 0.000000 0.000000 0.000000
		CHANNELS 3 Xrotation Yrotation Zrotation
		JOINT LeftUpLeg
		{
			OFFSET 10.205400 -3.823500 0.155100
			CHANNELS 3 Xrotation Yrotation Zrotation
			JOINT LeftLeg
			{
				OFFSET 0.708757 -12.982077 0.567790
				CHANNELS 3 Xrotation Yrotation Zrotation
				JOINT LeftFoot
				{
					OFFSET -0.708756 -10.717838 -2.184338
					CHANNELS 3 Xrotation Yrotation Zrotation
					JOINT LeftToeBase
					{
						OFFSET 0.108149 -7.191104 7.560241
						CHANNELS 3 Xrotation Yrotation Zrotation
						JOINT LeftToe_End
						{
							OFFSET 0.070230 0.081724 4.490308
							CHANNELS 3 Xrotation Yrotation Zrotation
							End Site
							{
								OFFSET 0 0 0
							}
						}
					}
				}
			}
		}
	}
	JOINT RightUpLeg_virtual
	{
		OFFSET 0.000000 0.000000 0.000000
		CHANNELS 3 Xrotation Yrotation Zrotation
		JOINT RightUpLeg
		{
			OFFSET -10.205400 -3.823500 0.005500
			CHANNELS 3 Xrotation Yrotation Zrotation
			JOINT RightLeg
			{
				OFFSET -0.708756 -12.982134 0.610632
				CHANNELS 3 Xrotation Yrotation Zrotation
				JOINT RightFoot
				{
					OFFSET 0.708754 -10.717769 -1.945823
					CHANNELS 3 Xrotation Yrotation Zrotation
					JOINT RightToeBase
					{
						OFFSET -0.108140 -7.191069 7.372968
						CHANNELS 3 Xrotation Yrotation Zrotation
						JOINT RightToe_End
						{
							OFFSET -0.070227 0.081735 4.479403
							CHANNELS 3 Xrotation Yrotation Zrotation
							End Site
							{
								OFFSET 0 0 0
							}
						}
					}
				}
			}
		}
	}
	JOINT Spine_virtual
	{
		OFFSET 0.000000 0.000000 0.000000
		CHANNELS 3 Xrotation Yrotation Zrotation
		JOINT Spine
		{
			OFFSET 0.000000 6.876099 0.125700
			CHANNELS 3 Xrotation Yrotation Zrotation
			JOINT Spine1
			{
				OFFSET 0.000000 5.730043 0.104720
				CHANNELS 3 Xrotation Yrotation Zrotation
				JOINT Spine1_split
				{
					OFFSET 0.000000 5.730043 0.104720
					CHANNELS 3 Xrotation Yrotation Zrotation
					JOINT Spine2
					{
						OFFSET 0.000000 5.730043 0.104720
						CHANNELS 3 Xrotation Yrotation Zrotation
						JOINT Neck_virtual
						{
							OFFSET 0.000000 0.000000 0.000000
							CHANNELS 3 Xrotation Yrotation Zrotation
							JOINT Neck
							{
								OFFSET 0.000000 10.314075 0.188496
								CHANNELS 3 Xrotation Yrotation Zrotation
								JOINT Head
								{
									OFFSET 0.000000 7.643700 -2.377400
									CHANNELS 3 Xrotation Yrotation Zrotation
									JOINT HeadTop_End
									{
										OFFSET 0.000000 43.788605 -13.619600
										CHANNELS 3 Xrotation Yrotation Zrotation
										End Site
										{
											OFFSET 0 0 0
										}
									}
								}
							}
						}
						JOINT LeftShoulder_virtual
						{
							OFFSET 0.000000 0.000000 0.000000
							CHANNELS 3 Xrotation Yrotation Zrotation
							JOINT LeftShoulder
							{
								OFFSET 2.196100 4.412489 0.087492
								CHANNELS 3 Xrotation Yrotation Zrotation
								JOINT LeftShoulder_split
								{
									OFFSET 2.196100 4.412489 0.087492
									CHANNELS 3 Xrotation Yrotation Zrotation
									JOINT LeftArm
									{
										OFFSET 8.771219 -2.981674 -0.026999
										CHANNELS 3 Xrotation Yrotation Zrotation
										JOINT LeftForeArm
										{
											OFFSET 8.512804 0.000000 -0.000000
											CHANNELS 3 Xrotation Yrotation Zrotation
											JOINT LeftHand
											{
												OFFSET 18.484802 0.000000 -0.000000
												CHANNELS 3 Xrotation Yrotation Zrotation
												End Site
												{
													OFFSET 0 0 0
												}
											}
										}
									}
								}
							}
						}
						JOINT RightShoulder_virtual
						{
							OFFSET 0.000000 0.000000 0.000000
							CHANNELS 3 Xrotation Yrotation Zrotation
							JOINT RightShoulder
							{
								OFFSET -2.196100 4.412496 0.070690
								CHANNELS 3 Xrotation Yrotation Zrotation
								JOINT RightShoulder_split
								{
									OFFSET -2.196100 4.412496 0.070690
									CHANNELS 3 Xrotation Yrotation Zrotation
									JOINT RightArm
									{
										OFFSET -8.771282 -2.981682 -0.094208
										CHANNELS 3 Xrotation Yrotation Zrotation
										JOINT RightForeArm
										{
											OFFSET -8.494598 0.000000 0.000000
											CHANNELS 3 Xrotation Yrotation Zrotation
											JOINT RightHand
											{
												OFFSET -18.483803 0.000000 0.000001
												CHANNELS 3 Xrotation Yrotation Zrotation
												End Site
												{
													OFFSET 0 0 0
												}
											}
										}
									}
								}
							}
						}
					}
				}
			}
		}
	}
}
MOTION
Frames: 11
Frame Time: 0.03333333
-0.441760 44.089405 7.847074 0.000000 0.000000 0.000000 6.227174 -39.724104 2.938581 -86.640526 -23.167488 23.426342 88.587096 -4.882904 -0.718448 10.778847 3.635817 -3.696308 -14.002931 2.800457 -1.082112 0.000000 0.000000 0.000000 5.860044 -35.869032 2.306991 -105.637550 -57.715638 21.936368 127.479115 -14.265142 -35.128267 50.679515 11.355346 33.444991 12.052949 5.946953 -9.234622 0.000000 0.000000 0.000000 4.048853 -41.641642 0.337809 32.139117 -8.354541 -7.107691 12.471946 0.677964 -3.415314 0.120105 1.679243 0.975200 0.000000 0.000000 0.000000 12.367226 0.574811 -2.399387 -7.459995 19.032174 -15.197451 -29.676431 11.190765 3.774430 0.000000 0.000000 0.000000 13.769785 1.122866 -2.860413 13.309056 -19.761496 3.474688 2.651297 -4.492778 -3.487218 -58.789924 -11.108063 -6.018527 47.531430 -16.187012 29.190094 0.000000 0.000000 0.000000 14.930978 1.078028 -3.129051 18.862976 24.257261 -7.824211 0.320702 4.063265 3.745327 -33.953980 2.124780 8.908185 -44.294463 48.366420 33.782003 0.000000 0.000000 0.000000 
-0.419107 44.058952 7.835520 0.000000 0.000000 0.000000 6.242310 -40.065132 3.147704 -86.546768 -23.074298 23.556704 88.465389 -4.908026 -0.862494 10.645496 3.879328 -3.838048 -13.971245 2.778824 -1.094367 0.000000 0.000000 0.000000 5.871666 -36.164192 2.491585 -105.650732 -57.535908 21.622830 127.314781 -13.946547 -35.070163 50.388775 11.198553 33.005656 12.055859 5.946378 -9.293919 0.000000 0.000000 0.000000 3.956066 -41.769656 0.467548 32.111585 -8.374044 -7.164045 12.414927 0.699587 -3.404051 0.069587 1.693970 0.985580 0.000000 0.000000 0.000000 12.390341 0.579425 -2.406754 -7.446631 19.016479 -15.212262 -29.431271 11.280790 3.624722 0.000000 0.000000 0.000000 13.711361 1.147125 -2.842698 13.031135 -19.837357 2.771863 2.823220 -4.596725 -3.763092 -57.973348 -10.513654 -5.871198 47.390988 -16.080965 28.929512 0.000000 0.000000 0.000000 14.889476 1.064878 -3.137772 18.402492 24.671043 -6.854111 0.307650 4.156211 3.724728 -32.862373 1.993428 8.821344 -44.422970 48.119017 33.708032 0.000000 0.000000 0.000000 
-0.402423 44.030270 7.826043 0.000000 0.000000 0.000000 6.331107 -40.297781 3.377819 -86.424535 -23.005943 23.605742 88.284259 -4.970071 -0.992676 10.386676 4.178358 -3.982346 -13.940899 2.742508 -1.086620 0.000000 0.000000 0.000000 5.928638 -36.346958 2.678316 -105.679918 -57.330552 21.273005 127.132073 -13.616440 -35.000270 50.046821 11.085762 32.613887 11.998917 5.942467 -9.325945 0.000000 0.000000 0.000000 3.902969 -41.894021 0.627544 32.026412 -8.390669 -7.209038 12.350140 0.712772 -3.395724 0.041855 1.704016 0.997533 0.000000 0.000000 0.000000 12.393123 0.583956 -2.421014 -7.370825 18.989637 -15.241700 -29.119040 11.370271 3.514467 0.000000 0.000000 0.000000 13.656541 1.168103 -2.830522 12.801917 -19.846877 2.170944 2.907014 -4.719536 -4.048767 -57.043571 -9.673514 -5.567302 47.239412 -16.114619 28.734032 0.000000 0.000000 0.000000 14.844931 1.055328 -3.148947 17.987889 25.036398 -6.028367 0.286060 4.231131 3.786492 -31.911098 1.623079 8.614875 -44.512326 47.766187 33.570376 0.000000 0.000000 0.000000 
-0.391782 44.007793 7.808912 0.000000 0.000000 0.000000 6.477168 -40.387161 3.622388 -86.283560 -22.978418 23.550926 88.056015 -5.057784 -1.101066 10.053413 4.523007 -4.133678 -13.926102 2.695912 -1.057618 0.000000 0.000000 0.000000 6.017081 -36.418220 2.875132 -105.726486 -57.123102 20.867334 126.939011 -13.290943 -34.916149 49.639329 11.017251 32.267467 11.934849 5.937333 -9.342313 0.000000 0.000000 0.000000 3.883318 -42.007156 0.821982 31.900159 -8.413141 -7.246894 12.292707 0.717242 -3.392387 0.056733 1.733523 1.054984 0.000000 0.000000 0.000000 12.381594 0.590253 -2.442766 -7.271730 18.947001 -15.267033 -28.758720 11.434299 3.461416 0.000000 0.000000 0.000000 13.609965 1.184884 -2.825772 12.608984 -19.798584 1.624811 2.874491 -4.802680 -4.335240 -56.016120 -8.561135 -5.179026 47.151217 -16.333926 28.661895 0.000000 0.000000 0.000000 14.799903 1.051183 -3.159503 17.620817 25.348615 -5.315334 0.282446 4.278457 3.917814 -31.167106 1.215823 8.362668 -44.472854 47.277285 33.287033 0.000000 0.000000 0.000000 
-0.390802 43.993309 7.790436 0.000000 0.000000 0.000000 6.636782 -40.369116 3.875074 -86.105777 -22.978997 23.417065 87.786762 -5.155776 -1.197597 9.679076 4.911037 -4.269362 -13.953924 2.645720 -1.010084 0.000000 0.000000 0.000000 6.139844 -36.414218 3.096050 -105.810627 -56.922735 20.370718 126.772846 -12.981586 -34.793448 49.202098 10.992113 31.956362 11.860053 5.935699 -9.354459 0.000000 0.000000 0.000000 3.884044 -42.097362 1.032768 31.749489 -8.441828 -7.282911 12.242008 0.719935 -3.399919 0.100789 1.770822 1.076539 0.000000 0.000000 0.000000 12.352031 0.602597 -2.473991 -7.171894 18.895741 -15.285352 -28.374008 11.471240 3.479811 0.000000 0.000000 0.000000 13.564177 1.198354 -2.830078 12.425274 -19.702514 1.061832 2.729877 -4.794289 -4.534020 -54.958567 -7.143701 -4.729608 47.217347 -16.787618 28.766281 0.000000 0.000000 0.000000 14.748412 1.053221 -3.171108 17.295064 25.599009 -4.667428 0.272382 4.275135 4.097334 -30.596464 0.910875 8.104084 -44.305214 46.687652 32.877433 0.000000 0.000000 0.000000 
-0.395688 43.985554 7.774693 0.000000 0.000000 0.000000 6.800248 -40.296159 4.140300 -85.896630 -22.974702 23.230995 87.489123 -5.249867 -1.288565 9.293825 5.321405 -4.367636 -14.022538 2.597371 -0.949062 0.000000 0.000000 0.000000 6.267452 -36.401544 3.340988 -105.964934 -56.729967 19.762358 126.668877 -12.693951 -34.642583 48.795978 11.027087 31.691538 11.750506 5.940943 -9.373073 0.000000 0.000000 0.000000 3.870821 -42.152041 1.240336 31.598067 -8.472777 -7.314246 12.195893 0.724243 -3.413354 0.129043 1.781335 1.090998 0.000000 0.000000 0.000000 12.303677 0.622016 -2.508136 -7.093344 18.834387 -15.290647 -27.979935 11.454195 3.560371 0.000000 0.000000 0.000000 13.510767 1.213773 -2.839609 12.232021 -19.536902 0.428200 2.485616 -4.723766 -4.601444 -53.980788 -5.475990 -4.254856 47.448467 -17.405576 29.032931 0.000000 0.000000 0.000000 14.685829 1.062057 -3.179774 16.999506 25.779484 -4.036535 0.244810 4.199450 4.288862 -30.171456 0.718060 7.878438 -44.016085 46.012444 32.365159 0.000000 0.000000 0.000000 
-0.409268 43.982777 7.766474 0.000000 0.000000 0.000000 6.920623 -40.220802 4.407314 -85.656398 -22.920549 23.052315 87.181716 -5.349766 -1.377811 8.919886 5.708310 -4.434123 -14.085665 2.551017 -0.884428 0.000000 0.000000 0.000000 6.383339 -36.387433 3.604297 -106.198117 -56.534193 19.069166 126.616107 -12.426074 -34.496290 48.457320 11.126510 31.489071 11.572927 5.954891 -9.398072 0.000000 0.000000 0.000000 3.818865 -42.154223 1.411725 31.458830 -8.500075 -7.338365 12.144448 0.732088 -3.421913 0.152586 1.809334 1.060216 0.000000 0.000000 0.000000 12.233217 0.645063 -2.539793 -7.045897 18.759232 -15.282171 -27.583196 11.381307 3.675846 0.000000 0.000000 0.000000 13.446084 1.230779 -2.847856 12.022354 -19.274485 -0.278147 2.142524 -4.605569 -4.605591 -53.146641 -3.585520 -3.770185 47.741503 -18.014562 29.350071 0.000000 0.000000 0.000000 14.607128 1.075592 -3.173815 16.716511 25.852013 -3.392583 0.154131 4.125450 4.416084 -29.780987 0.533963 7.715363 -43.718914 45.358122 31.890823 0.000000 0.000000 0.000000 
-0.427473 43.985413 7.767963 0.000000 0.000000 0.000000 6.984882 -40.186436 4.660444 -85.382296 -22.786705 22.936889 86.870710 -5.472726 -1.461855 8.570140 6.029898 -4.507200 -14.105111 2.508652 -0.821367 0.000000 0.000000 0.000000 6.467727 -36.400325 3.859980 -106.426785 -56.339334 18.412913 126.607009 -12.187724 -34.380823 48.183037 11.251934 31.338875 11.330810 5.973480 -9.406099 0.000000 0.000000 0.000000 3.735637 -42.109455 1.530205 31.341228 -8.514268 -7.351086 12.077338 0.747471 -3.415546 0.150211 1.840352 0.985960 0.000000 0.000000 0.000000 12.130672 0.672473 -2.558911 -7.020027 18.669127 -15.276142 -27.202617 11.247149 3.798559 0.000000 0.000000 0.000000 13.369456 1.253540 -2.849638 11.801285 -18.884268 -1.027215 1.776706 -4.521087 -4.511081 -52.493009 -1.584244 -3.299594 47.997023 -18.468314 29.612534 0.000000 0.000000 0.000000 14.516481 1.100329 -3.149089 16.450458 25.803376 -2.744461 -0.023579 4.078661 4.485309 -29.386995 0.170861 7.628162 -43.540158 44.843573 31.611738 0.000000 0.000000 0.000000 
-0.446055 43.992313 7.777692 0.000000 0.000000 0.000000 6.997866 -40.177748 4.876089 -85.092279 -22.574298 22.899147 86.566658 -5.609383 -1.538315 8.245331 6.262244 -4.595965 -14.084274 2.466144 -0.744734 0.000000 0.000000 0.000000 6.497148 -36.408521 4.070345 -106.538534 -56.154475 17.932783 126.617104 -11.997559 -34.311414 47.954365 11.334003 31.194000 11.107916 5.990194 -9.378568 0.000000 0.000000 0.000000 3.642355 -42.012562 1.609718 31.251377 -8.517691 -7.349867 11.992736 0.770087 -3.391568 0.124993 1.836660 0.980266 0.000000 0.000000 0.000000 12.016394 0.706219 -2.557474 -7.005447 18.546011 -15.267705 -26.850017 11.063460 3.889995 0.000000 0.000000 0.000000 13.278643 1.284560 -2.840702 11.584169 -18.337724 -1.738285 1.413153 -4.513143 -4.376344 -52.025015 0.430165 -2.845770 48.087810 -18.641888 29.719314 0.000000 0.000000 0.000000 14.411730 1.137313 -3.100202 16.196182 25.617389 -2.118857 -0.224616 4.129232 4.449583 -29.025565 -0.559556 7.555053 -43.592685 44.539629 31.649474 0.000000 0.000000 0.000000 
-0.460999 44.006199 7.781414 0.000000 0.000000 0.000000 6.965312 -40.191995 5.034892 -84.777988 -22.328814 22.939395 86.288648 -5.727865 -1.603594 7.906590 6.418275 -4.672816 -14.049791 2.419015 -0.645771 0.000000 0.000000 0.000000 6.467285 -36.365942 4.206048 -106.442925 -55.997559 17.738937 126.613006 -11.860069 -34.287386 47.755484 11.330928 31.035895 10.938957 6.000576 -9.309204 0.000000 0.000000 0.000000 3.596006 -41.898491 1.681379 31.189512 -8.507661 -7.340846 11.886793 0.801072 -3.359251 0.103895 1.824208 1.003412 0.000000 0.000000 0.000000 11.900737 0.747064 -2.542463 -6.984175 18.389454 -15.253202 -26.548156 10.877243 3.917249 0.000000 0.000000 0.000000 13.184233 1.323769 -2.824962 11.393921 -17.636366 -2.330416 1.129440 -4.590513 -4.205770 -51.731067 2.390023 -2.397959 48.027763 -18.591439 29.701207 0.000000 0.000000 0.000000 14.295774 1.185234 -3.035057 15.958621 25.273013 -1.582380 -0.446870 4.200098 4.401816 -28.723193 -1.743497 7.420519 -43.957609 44.515734 32.080733 0.000000 0.000000 0.000000 
-0.474995 44.027691 7.772505 0.000000 0.000000 0.000000 6.903457 -40.217038 5.127686 -84.452502 -22.098152 23.025643 86.053198 -5.802568 -1.638769 7.514630 6.531474 -4.714872 -14.040145 2.369690 -0.527235 0.000000 0.000000 0.000000 6.399806 -36.291350 4.268073 -106.121271 -55.878905 17.869235 126.585918 -11.761295 -34.305974 47.585802 11.255794 30.878288 10.803219 6.005476 -9.205714 0.000000 0.000000 0.000000 3.613980 -41.792018 1.760865 31.143323 -8.479034 -7.331595 11.760097 0.842361 -3.335295 0.128132 1.755474 1.041841 0.000000 0.000000 0.000000 11.796941 0.797512 -2.526510 -6.950997 18.213522 -15.236766 -26.322455 10.735367 3.880240 0.000000 0.000000 0.000000 13.091622 1.371981 -2.813981 11.248201 -16.812856 -2.731728 0.932778 -4.790521 -4.068593 -51.606392 4.237969 -1.896376 47.906223 -18.531020 29.690446 0.000000 0.000000 0.000000 14.173793 1.242729 -2.980220 15.755179 24.791951 -1.208219 -0.657225 4.262129 4.376276 -28.510734 -3.384457 7.096418 -44.674280 44.795171 32.932075 0.000000 0.000000 0.000000 
